<svg width="16" height="16" viewBox="0 0 16 16" fill="none" xmlns="http://www.w3.org/2000/svg">
<rect width="16" height="16" rx="3" fill="#F5C816"/>
<path d="M5.28553 7.00288L3.922 8.36641C3.41276 8.87565 3.11991 9.56855 3.12526 10.2968C3.13061 11.025 3.41705 11.7221 3.95046 12.239C4.46736 12.7725 5.16463 13.0589 5.89273 13.0642C6.63743 13.0697 7.31393 12.7934 7.8232 12.2841L9.18673 10.9206M10.9284 9.21224L12.2919 7.84871C12.8012 7.33947 13.094 6.64657 13.0886 5.91836C13.0833 5.19014 12.7969 4.49302 12.2635 3.97609C11.7467 3.45931 11.0495 3.17285 10.3213 3.1675C9.59309 3.16215 8.9001 3.43837 8.39083 3.94763L7.0273 5.31116M6.03925 10.1388L10.1298 6.04822" stroke="#262626" stroke-linecap="round" stroke-linejoin="round"/>
</svg>
