<svg width="24" height="24" viewBox="0 0 24 24" fill="none" xmlns="http://www.w3.org/2000/svg">
<path d="M12.0005 18.3003C12.4973 18.3005 12.8998 18.7029 12.8999 19.1997C12.8999 19.6966 12.4974 20.0999 12.0005 20.1001C11.5034 20.1001 11.1001 19.6968 11.1001 19.1997C11.1002 18.7027 11.5035 18.3003 12.0005 18.3003ZM12.0005 11.1001C12.4972 11.1003 12.8997 11.5028 12.8999 11.9995C12.8999 12.4964 12.4974 12.8997 12.0005 12.8999C11.5034 12.8999 11.1001 12.4966 11.1001 11.9995C11.1003 11.5026 11.5036 11.1001 12.0005 11.1001ZM12.0005 3.8999C12.4974 3.90011 12.8999 4.30337 12.8999 4.80029C12.8997 5.29704 12.4972 5.6995 12.0005 5.69971C11.5036 5.69971 11.1003 5.29717 11.1001 4.80029C11.1001 4.30324 11.5034 3.8999 12.0005 3.8999Z" stroke="black" stroke-width="3"/>
</svg>
