<svg width="71" height="85" viewBox="0 0 71 85" fill="none" xmlns="http://www.w3.org/2000/svg">
<path d="M46.3563 8.44849H19.5251C15.6039 8.44849 12.4251 12.2312 12.4251 16.8973L12.425 31.82M46.3563 8.44849C47.3561 8.44849 48.3077 8.94956 48.9964 9.81185C50.0314 11.1077 51.671 13.1029 53.2509 14.7851C54.4892 16.1036 56.4346 18.4697 57.5996 19.9077C58.2296 20.6854 58.5759 21.7238 58.5759 22.8039L58.575 67.5908C58.5749 72.2569 55.3961 76.0395 51.4749 76.0395L19.5248 76.0393C15.6036 76.0393 12.4248 72.2566 12.4248 67.5904V65.8359M46.3563 8.44849L46.3561 18.2692C46.3561 20.6022 47.9454 22.4936 49.9061 22.4936H58.566M12.425 31.82H4.5C3.66667 31.8203 1.9 32.3695 1.5 34.5641V40.4666M12.425 31.82V40.4666M1.5 40.4666V61.4468C1.66667 62.9099 2.7 65.8359 5.5 65.8359H12.4248M1.5 40.4666H12.425M12.4248 65.8359H48.9964C49.9964 65.8359 51.9964 65.1775 51.9964 62.5441V44.4394C52.1016 43.1151 51.8309 40.4666 49.9061 40.4666H12.425" stroke="black" stroke-width="2" stroke-linecap="round" stroke-linejoin="round"/>
<path d="M13.25 59.793V48.4805H17.0938C19.75 48.4805 20.9531 50.0586 20.9531 52.0742C20.9531 54.0742 19.75 55.6836 17.1094 55.6836H14.6562V59.793H13.25ZM14.6562 54.4336H17.0469C18.8438 54.4336 19.5625 53.418 19.5625 52.0742C19.5625 50.7148 18.8438 49.7305 17.0312 49.7305H14.6562V54.4336ZM26.4375 59.793H22.9219V48.4805H26.5781C29.875 48.4805 31.8281 50.6055 31.8281 54.1211C31.8281 57.6523 29.875 59.793 26.4375 59.793ZM24.3281 58.543H26.3438C29.125 58.543 30.4531 56.8711 30.4531 54.1211C30.4531 51.3867 29.125 49.7305 26.4844 49.7305H24.3281V58.543ZM33.8906 59.793V48.4805H40.7031V49.7305H35.2969V53.5117H40.1875V54.7461H35.2969V59.793H33.8906Z" fill="black"/>
<path d="M18.5 17H30.5" stroke="black" stroke-width="3" stroke-miterlimit="5.4874" stroke-linecap="round"/>
<path d="M18 23H42" stroke="black" stroke-width="3" stroke-miterlimit="5.4874" stroke-linecap="round"/>
<path d="M18 28H42" stroke="black" stroke-width="3" stroke-miterlimit="5.4874" stroke-linecap="round"/>
</svg>
