<svg width="29" height="28" viewBox="0 0 29 28" fill="none" xmlns="http://www.w3.org/2000/svg">
<path d="M13.8227 1.42509C14.0997 0.858305 14.9003 0.858305 15.1773 1.42509L18.7639 8.76213C18.8739 8.9872 19.0866 9.1432 19.3326 9.17929L27.3525 10.3558C27.972 10.4467 28.2194 11.2154 27.7711 11.6566L21.9679 17.3677C21.7898 17.5428 21.7086 17.7953 21.7506 18.0426L23.1206 26.1068C23.2264 26.7298 22.5788 27.2048 22.0247 26.9107L14.8515 23.1033C14.6314 22.9865 14.3686 22.9865 14.1485 23.1033L6.97534 26.9107C6.42122 27.2048 5.77359 26.7298 5.87942 26.1068L7.24937 18.0426C7.29139 17.7953 7.21016 17.5428 7.03214 17.3677L1.22892 11.6566C0.780628 11.2154 1.028 10.4467 1.64753 10.3558L9.66738 9.17929C9.9134 9.1432 10.1261 8.9872 10.2361 8.76213L13.8227 1.42509Z" stroke="black" stroke-width="2" stroke-linejoin="round"/>
</svg>
