<svg width="25" height="25" viewBox="0 0 25 25" fill="none" xmlns="http://www.w3.org/2000/svg">
<path d="M5.92188 22.0938V15.7656C5.92188 14.989 6.55147 14.3594 7.32812 14.3594H17.1719C17.9485 14.3594 18.5781 14.989 18.5781 15.7656V22.7969M18.5781 2.40625V5.21875C18.5781 5.9954 17.9485 6.625 17.1719 6.625L7.32812 6.625C6.55147 6.625 5.92187 5.9954 5.92188 5.21875L5.92188 1M22.7939 5.91891L18.5811 1.70609C18.129 1.25399 17.5158 1 16.8765 1H3.41071C2.0793 1 1 2.0793 1 3.41071V21.0893C1 22.4207 2.0793 23.5 3.41071 23.5H21.0893C22.4207 23.5 23.5 22.4207 23.5 21.0893V7.62354C23.5 6.98418 23.246 6.37101 22.7939 5.91891Z" stroke="black" stroke-width="2" stroke-linecap="round"/>
</svg>
