<svg width="22" height="23" viewBox="0 0 22 23" fill="none" xmlns="http://www.w3.org/2000/svg">
<path d="M6.57433 9.61859L4.58424 11.7267C3.841 12.514 3.41359 13.5853 3.4214 14.7112C3.42921 15.837 3.84727 16.9148 4.62578 17.7141C5.38021 18.5388 6.39788 18.9816 7.46055 18.9899C8.54745 18.9983 9.53481 18.5711 10.2781 17.7837L12.2682 15.6756M14.8101 13.0344L16.8002 10.9263C17.5435 10.139 17.9709 9.06771 17.9631 7.94184C17.9553 6.81597 17.5372 5.73816 16.7587 4.93895C16.0044 4.13997 14.9869 3.69709 13.9241 3.68882C12.8613 3.68054 11.8498 4.1076 11.1065 4.89495L9.11647 7.00306M7.67439 14.467L13.6446 8.14261" stroke="#7D7D7D" stroke-width="1.33195" stroke-linecap="round" stroke-linejoin="round"/>
</svg>
